<svg xmlns="http://www.w3.org/2000/svg" width="200" height="174" viewBox="0 0 200 174">
  <g id="_5_min" data-name="5 min" transform="translate(-303.369 -1446.438)">
    <rect id="Rectangle_2398" data-name="Rectangle 2398" width="200" height="174" transform="translate(303.369 1446.438)" fill="none"/>
    <g id="Intersection_3" data-name="Intersection 3" transform="translate(5559 2617)" fill="none" stroke-linejoin="round">
      <path d="M-5204.979-1038.543l-30.01-30.009a59.416,59.416,0,0,1,0-84.026,59.415,59.415,0,0,1,84.026,0,59.415,59.415,0,0,1,0,84.026l-30.009,30.009a16.921,16.921,0,0,1-12,4.973A16.92,16.92,0,0,1-5204.979-1038.543Z" stroke="none"/>
      <path d="M -5192.97509765625 -1035.570678710938 C -5188.97509765625 -1035.570678710938 -5185.21435546875 -1037.128540039063 -5182.3857421875 -1039.957397460938 L -5152.37646484375 -1069.966796875 C -5146.89501953125 -1075.4482421875 -5142.65185546875 -1081.838134765625 -5139.76416015625 -1088.959106445313 C -5138.3759765625 -1092.3818359375 -5137.3154296875 -1095.961181640625 -5136.611328125 -1099.597778320313 C -5135.91357421875 -1103.200317382813 -5135.56005859375 -1106.890502929688 -5135.56005859375 -1110.5654296875 C -5135.56005859375 -1114.240600585938 -5135.91357421875 -1117.9306640625 -5136.611328125 -1121.533325195313 C -5137.3154296875 -1125.169799804688 -5138.3759765625 -1128.749145507813 -5139.76416015625 -1132.171875 C -5142.65185546875 -1139.292846679688 -5146.89501953125 -1145.682739257813 -5152.37646484375 -1151.164184570313 C -5157.85791015625 -1156.6455078125 -5164.248046875 -1160.889038085938 -5171.369140625 -1163.776611328125 C -5174.79150390625 -1165.16455078125 -5178.37109375 -1166.225341796875 -5182.00732421875 -1166.929443359375 C -5185.6103515625 -1167.626953125 -5189.30029296875 -1167.980590820313 -5192.97509765625 -1167.980590820313 C -5196.650390625 -1167.980590820313 -5200.34033203125 -1167.626953125 -5203.943359375 -1166.929443359375 C -5207.57958984375 -1166.225341796875 -5211.1591796875 -1165.16455078125 -5214.58154296875 -1163.776611328125 C -5221.70263671875 -1160.889038085938 -5228.0927734375 -1156.6455078125 -5233.57421875 -1151.164184570313 C -5239.05517578125 -1145.682739257813 -5243.298828125 -1139.292846679688 -5246.1865234375 -1132.171875 C -5247.57421875 -1128.749145507813 -5248.63525390625 -1125.169799804688 -5249.3388671875 -1121.533325195313 C -5250.03662109375 -1117.9306640625 -5250.39013671875 -1114.240600585938 -5250.39013671875 -1110.5654296875 C -5250.39013671875 -1106.890502929688 -5250.03662109375 -1103.200317382813 -5249.3388671875 -1099.597778320313 C -5248.63525390625 -1095.961181640625 -5247.57421875 -1092.3818359375 -5246.1865234375 -1088.959106445313 C -5243.298828125 -1081.838134765625 -5239.05517578125 -1075.4482421875 -5233.57421875 -1069.966796875 L -5203.56396484375 -1039.957275390625 C -5200.73583984375 -1037.128540039063 -5196.97509765625 -1035.570678710938 -5192.97509765625 -1035.570678710938 M -5192.97509765625 -1033.570678710938 C -5197.31982421875 -1033.570678710938 -5201.6640625 -1035.228149414063 -5204.978515625 -1038.543212890625 L -5234.98828125 -1068.552612304688 C -5258.19091796875 -1091.755737304688 -5258.19091796875 -1129.375244140625 -5234.98828125 -1152.578369140625 C -5223.38671875 -1164.179809570313 -5208.18115234375 -1169.980590820313 -5192.97509765625 -1169.980590820313 C -5177.76953125 -1169.980590820313 -5162.56396484375 -1164.179809570313 -5150.96240234375 -1152.578369140625 C -5127.75927734375 -1129.375244140625 -5127.75927734375 -1091.755737304688 -5150.96240234375 -1068.552612304688 L -5180.9716796875 -1038.543212890625 C -5184.2861328125 -1035.228149414063 -5188.630859375 -1033.570678710938 -5192.97509765625 -1033.570678710938 Z" stroke="none" fill="#414141"/>
    </g>
    <g id="Ellipse_19" data-name="Ellipse 19" transform="translate(325.369 1466.438)" fill="none" stroke="#414141" stroke-linejoin="round" stroke-width="2">
      <ellipse cx="40.5" cy="40" rx="40.5" ry="40" stroke="none"/>
      <ellipse cx="40.5" cy="40" rx="39.5" ry="39" fill="none"/>
    </g>
    <line id="Line_45" data-name="Line 45" x2="193.049" transform="translate(306.5 1619.067)" fill="none" stroke="#414141" stroke-linecap="round" stroke-width="2"/>
    <line id="Line_46" data-name="Line 46" x2="66.549" transform="translate(408.869 1546.673)" fill="none" stroke="#414141" stroke-linecap="round" stroke-width="2"/>
    <line id="Line_48" data-name="Line 48" x1="24.131" y1="72.393" transform="translate(475.418 1546.673)" fill="none" stroke="#414141" stroke-linecap="round" stroke-width="2"/>
    <path id="Path_2789" data-name="Path 2789" d="M307.763,1504.738c30.987-33.183,64.656-30.635,90.744-5.788s86.584-17.536,86.584-17.536" transform="translate(2.89 102.182)" fill="none" stroke="#414141" stroke-linecap="round" stroke-linejoin="round" stroke-width="2"/>
    <text id="min" transform="translate(366.369 1531.438)" fill="#414141" font-size="19" font-family="Roboto-Regular, Roboto"><tspan x="-15.874" y="0">min</tspan></text>
    <text id="_5" data-name="5" transform="translate(364.369 1511.438)" fill="#414141" font-size="37" font-family="Roboto-Regular, Roboto"><tspan x="-10.388" y="0">5</tspan></text>
    <ellipse id="Ellipse_106" data-name="Ellipse 106" cx="4.5" cy="2.5" rx="4.5" ry="2.5" transform="translate(447.369 1569.438)" fill="#414141"/>
    <line id="Line_84" data-name="Line 84" y1="67.129" x2="22.369" transform="translate(306.5 1551.938)" fill="none" stroke="#414141" stroke-width="2"/>
    <line id="Line_85" data-name="Line 85" y2="62" transform="translate(451.869 1509.938)" fill="none" stroke="#414141" stroke-linecap="round" stroke-width="2"/>
    <line id="Line_86" data-name="Line 86" x2="25" transform="translate(451.869 1514.938)" fill="none" stroke="#414141" stroke-linecap="round" stroke-width="2"/>
    <line id="Line_90" data-name="Line 90" x2="20" transform="translate(476.869 1518.938)" fill="none" stroke="#414141" stroke-linecap="round" stroke-width="2"/>
    <line id="Line_87" data-name="Line 87" x2="25" transform="translate(451.869 1536.938)" fill="none" stroke="#414141" stroke-linecap="round" stroke-width="2"/>
    <line id="Line_89" data-name="Line 89" x2="26" transform="translate(470.869 1540.938)" fill="none" stroke="#414141" stroke-linecap="round" stroke-width="2"/>
    <line id="Line_88" data-name="Line 88" y2="22" transform="translate(476.869 1514.938)" fill="none" stroke="#414141" stroke-linecap="round" stroke-width="2"/>
    <line id="Line_93" data-name="Line 93" y2="4" transform="translate(470.869 1536.938)" fill="none" stroke="#414141" stroke-linecap="round" stroke-width="2"/>
    <path id="Path_2792" data-name="Path 2792" d="M5697.645,2788.311c39.456-4.11,33.524-44.518,33.014-48.946" transform="translate(-5300.631 -1191.563)" fill="none" stroke="#414141" stroke-linecap="round" stroke-width="2"/>
    <line id="Line_91" data-name="Line 91" x1="6" y2="11" transform="translate(490.869 1518.938)" fill="none" stroke="#414141" stroke-linecap="round" stroke-width="2"/>
    <line id="Line_92" data-name="Line 92" x1="6" y1="11" transform="translate(490.869 1529.938)" fill="none" stroke="#414141" stroke-linecap="round" stroke-width="2"/>
    <line id="Line_94" data-name="Line 94" x1="6" y2="4" transform="translate(470.869 1536.938)" fill="none" stroke="#414141" stroke-linecap="round" stroke-width="2"/>
  </g>
</svg>
