<svg xmlns="http://www.w3.org/2000/svg" width="130" height="130" viewBox="0 0 130 130">
  <g id="flyers" transform="translate(-280 -1317)">
    <path id="Path_5" data-name="Path 5" d="M11248.014,2737A64.123,64.123,0,0,1,11294,2756c11.021,12,19,28,19,45.993v48c0,10.007-6.99,17-16.979,17h-48.008a65,65,0,1,1,0-130Z" transform="translate(-10903.001 -1419.998)" fill="#e31d24"/>
    <g id="flyers-2" data-name="flyers" transform="translate(319 1316.083)">
      <g id="Group_111" data-name="Group 111" transform="translate(45.171 52.747)">
        <g id="Group_110" data-name="Group 110" transform="translate(0 0)">
          <path id="Path_234" data-name="Path 234" d="M346.958,165.46l-3.613-3.122a1.073,1.073,0,1,0-1.4,1.624l3.612,3.122a3.09,3.09,0,0,1,.317,4.354l-23.465,27.151a1.073,1.073,0,0,0,1.624,1.4L347.5,172.84A5.239,5.239,0,0,0,346.958,165.46Z" transform="translate(-322.145 -162.076)" fill="#fff"/>
        </g>
      </g>
      <g id="Group_113" data-name="Group 113" transform="translate(37.677 34.917)">
        <g id="Group_112" data-name="Group 112" transform="translate(0 0)">
          <path id="Path_235" data-name="Path 235" d="M294.648,50.634,277.936,36.191a5.233,5.233,0,0,0-7.381.537l-1.592,1.842a1.073,1.073,0,0,0,1.624,1.4l1.592-1.842a3.087,3.087,0,0,1,4.354-.317l16.712,14.443a1.073,1.073,0,1,0,1.4-1.623Z" transform="translate(-268.702 -34.917)" fill="#fff"/>
        </g>
      </g>
      <g id="Group_115" data-name="Group 115" transform="translate(17.464 36.871)">
        <g id="Group_114" data-name="Group 114" transform="translate(0 0)">
          <path id="Path_236" data-name="Path 236" d="M160.518,58.823l-28.911-9.7a5.238,5.238,0,0,0-6.625,3.3L124.6,53.56a1.073,1.073,0,0,0,2.035.682l.381-1.137a3.09,3.09,0,0,1,3.908-1.945l28.912,9.7a3.09,3.09,0,0,1,1.945,3.908L148.33,104.871a1.073,1.073,0,1,0,2.035.682l13.452-40.105A5.239,5.239,0,0,0,160.518,58.823Z" transform="translate(-124.545 -48.854)" fill="#fff"/>
        </g>
      </g>
      <g id="Group_117" data-name="Group 117" transform="translate(0 44.151)">
        <g id="Group_116" data-name="Group 116" transform="translate(0 0)">
          <path id="Path_237" data-name="Path 237" d="M35.727,100.769H5.233A5.239,5.239,0,0,0,0,106v42.3a5.239,5.239,0,0,0,5.233,5.233H35.727A5.239,5.239,0,0,0,40.96,148.3V106A5.239,5.239,0,0,0,35.727,100.769ZM38.814,148.3a3.09,3.09,0,0,1-3.087,3.087H5.233A3.09,3.09,0,0,1,2.146,148.3V106a3.09,3.09,0,0,1,3.087-3.087H35.727A3.09,3.09,0,0,1,38.814,106v42.3Z" transform="translate(0 -100.769)" fill="#fff"/>
        </g>
      </g>
      <g id="Group_119" data-name="Group 119" transform="translate(3.601 73.764)">
        <g id="Group_118" data-name="Group 118">
          <path id="Path_238" data-name="Path 238" d="M58.368,311.96H26.757a1.073,1.073,0,1,0,0,2.146H58.368a1.073,1.073,0,1,0,0-2.146Z" transform="translate(-25.684 -311.96)" fill="#fff"/>
        </g>
      </g>
      <g id="Group_121" data-name="Group 121" transform="translate(16.924 79.899)">
        <g id="Group_120" data-name="Group 120" transform="translate(0 0)">
          <path id="Path_239" data-name="Path 239" d="M135.059,355.718H121.773a1.073,1.073,0,0,0,0,2.146h13.286a1.073,1.073,0,0,0,0-2.146Z" transform="translate(-120.7 -355.718)" fill="#fff"/>
        </g>
      </g>
      <g id="Group_123" data-name="Group 123" transform="translate(8.603 79.899)">
        <g id="Group_122" data-name="Group 122" transform="translate(0 0)">
          <path id="Path_240" data-name="Path 240" d="M67.172,355.718H62.427a1.073,1.073,0,0,0,0,2.146h4.745a1.073,1.073,0,0,0,0-2.146Z" transform="translate(-61.354 -355.718)" fill="#fff"/>
        </g>
      </g>
      <g id="Group_125" data-name="Group 125" transform="translate(8.603 84.001)">
        <g id="Group_124" data-name="Group 124">
          <path id="Path_241" data-name="Path 241" d="M84.035,384.969H62.427a1.073,1.073,0,0,0,0,2.146H84.035a1.073,1.073,0,0,0,0-2.146Z" transform="translate(-61.354 -384.969)" fill="#fff"/>
        </g>
      </g>
      <g id="Group_127" data-name="Group 127" transform="translate(8.603 88.102)">
        <g id="Group_126" data-name="Group 126">
          <path id="Path_242" data-name="Path 242" d="M84.035,414.219H62.427a1.073,1.073,0,0,0,0,2.146H84.035a1.073,1.073,0,0,0,0-2.146Z" transform="translate(-61.354 -414.219)" fill="#fff"/>
        </g>
      </g>
      <g id="Group_129" data-name="Group 129" transform="translate(8.635 48.032)">
        <g id="Group_128" data-name="Group 128" transform="translate(0 0)">
          <path id="Path_243" data-name="Path 243" d="M85.218,137.017a1.072,1.072,0,0,0-.866-.73l-6.885-1-3.079-6.239a1.073,1.073,0,0,0-1.924,0l-3.079,6.239-6.885,1a1.073,1.073,0,0,0-.595,1.83l4.982,4.856L65.71,149.83a1.073,1.073,0,0,0,1.557,1.131l6.158-3.238,6.158,3.238a1.073,1.073,0,0,0,1.557-1.131l-1.176-6.858,4.982-4.856A1.073,1.073,0,0,0,85.218,137.017Zm-7.155,4.813a1.073,1.073,0,0,0-.309.95l.9,5.271-4.733-2.489a1.074,1.074,0,0,0-1,0l-4.733,2.489.9-5.271a1.073,1.073,0,0,0-.309-.95L64.959,138.1l5.292-.769a1.073,1.073,0,0,0,.808-.587l2.367-4.8,2.367,4.8a1.073,1.073,0,0,0,.808.587l5.292.769Z" transform="translate(-61.58 -128.449)" fill="#fff"/>
        </g>
      </g>
    </g>
  </g>
</svg>
