<svg xmlns="http://www.w3.org/2000/svg" width="116" height="200" viewBox="0 0 116 200">
  <g id="phone" transform="translate(-278 -2631)">
    <g id="Group_156" data-name="Group 156" transform="translate(-900 -274)">
      <g id="Rectangle_127" data-name="Rectangle 127" transform="translate(1178 2905)" fill="none" stroke="#414141" stroke-width="2">
        <rect width="116" height="200" rx="10" stroke="none"/>
        <rect x="1" y="1" width="114" height="198" rx="9" fill="none"/>
      </g>
      <g id="Rectangle_625" data-name="Rectangle 625" transform="translate(1186 2934)" fill="none" stroke="#414141" stroke-width="2">
        <rect width="100" height="40" rx="5" stroke="none"/>
        <rect x="1" y="1" width="98" height="38" rx="4" fill="none"/>
      </g>
      <g id="Rectangle_631" data-name="Rectangle 631" transform="translate(1220 2948)" fill="none" stroke="#414141" stroke-width="2">
        <rect width="56" height="12" rx="5" stroke="none"/>
        <rect x="1" y="1" width="54" height="10" rx="4" fill="none"/>
      </g>
      <g id="Rectangle_632" data-name="Rectangle 632" transform="translate(1220 2992)" fill="none" stroke="#414141" stroke-width="2">
        <rect width="56" height="12" rx="5" stroke="none"/>
        <rect x="1" y="1" width="54" height="10" rx="4" fill="none"/>
      </g>
      <g id="Rectangle_633" data-name="Rectangle 633" transform="translate(1220 3035)" fill="none" stroke="#414141" stroke-width="2">
        <rect width="56" height="14" rx="5" stroke="none"/>
        <rect x="1" y="1" width="54" height="12" rx="4" fill="none"/>
      </g>
      <g id="Rectangle_629" data-name="Rectangle 629" transform="translate(1186 2978)" fill="none" stroke="#414141" stroke-width="2">
        <rect width="100" height="40" rx="5" stroke="none"/>
        <rect x="1" y="1" width="98" height="38" rx="4" fill="none"/>
      </g>
      <g id="Rectangle_630" data-name="Rectangle 630" transform="translate(1186 3022)" fill="none" stroke="#414141" stroke-width="2">
        <rect width="100" height="40" rx="5" stroke="none"/>
        <rect x="1" y="1" width="98" height="38" rx="4" fill="none"/>
      </g>
      <g id="Rectangle_129" data-name="Rectangle 129" transform="translate(1178 2924)" fill="none" stroke="#414141" stroke-width="2">
        <rect width="116" height="148" rx="7" stroke="none"/>
        <rect x="1" y="1" width="114" height="146" rx="6" fill="none"/>
      </g>
      <g id="Rectangle_626" data-name="Rectangle 626" transform="translate(1216 2912)" fill="none" stroke="#414141" stroke-width="2">
        <rect width="40" height="6" rx="3" stroke="none"/>
        <rect x="1" y="1" width="38" height="4" rx="2" fill="none"/>
      </g>
      <g id="Ellipse_10" data-name="Ellipse 10" transform="translate(1226 3078)" fill="none" stroke="#414141" stroke-width="2">
        <circle cx="10" cy="10" r="10" stroke="none"/>
        <circle cx="10" cy="10" r="9" fill="none"/>
      </g>
      <g id="Ellipse_101" data-name="Ellipse 101" transform="translate(1194 2944)" fill="none" stroke="#414141" stroke-width="2">
        <circle cx="10" cy="10" r="10" stroke="none"/>
        <circle cx="10" cy="10" r="9" fill="none"/>
      </g>
      <g id="Ellipse_102" data-name="Ellipse 102" transform="translate(1194 2988)" fill="none" stroke="#414141" stroke-width="2">
        <circle cx="10" cy="10" r="10" stroke="none"/>
        <circle cx="10" cy="10" r="9" fill="none"/>
      </g>
      <g id="Ellipse_103" data-name="Ellipse 103" transform="translate(1194 3032)" fill="none" stroke="#414141" stroke-width="2">
        <circle cx="10" cy="10" r="10" stroke="none"/>
        <circle cx="10" cy="10" r="9" fill="none"/>
      </g>
    </g>
  </g>
</svg>
