<svg width="130" height="130" viewBox="0 0 130 130" fill="none" xmlns="http://www.w3.org/2000/svg">
<path d="M65.001 0.00708008C73.5455 -0.049635 82.0158 1.60192 89.9131 4.86475C97.8103 8.12758 104.976 12.9359 110.988 19.0071C122.009 31.0071 129.988 47.007 129.988 65V113C129.988 123.007 123.001 130 113.01 130H65C47.7609 130 31.228 123.152 19.0381 110.962C6.84822 98.772 0 82.2391 0 65C0 47.7609 6.84822 31.228 19.0381 19.0381C31.228 6.84822 47.7609 0 65 0L65.001 0.00708008Z" fill="#E31D24"/>
<path d="M33.4582 77.5232C32.1882 77.5232 31.1036 77.7513 30.4042 78.1654C29.7326 78.5632 29.4331 79.108 29.4331 79.9319V83.3548C29.4331 85.4636 31.2388 87.1793 33.4582 87.1793C35.6777 87.1793 37.4833 85.4636 37.4833 83.3548V79.9319C37.4833 79.108 37.1838 78.5632 36.5122 78.1654C35.8129 77.7513 34.7283 77.5232 33.4582 77.5232ZM33.4582 76.0232C36.2737 76.0232 38.9835 76.9912 38.9835 79.9319V83.3548C38.9835 86.2954 36.5097 88.6793 33.4582 88.6793C30.4067 88.6793 27.933 86.2954 27.933 83.3548V79.9319C27.933 76.9912 30.6428 76.0232 33.4582 76.0232Z" fill="white"/>
<path d="M30.498 87.6929L24.973 91.6379" stroke="white" stroke-width="1.5" stroke-linecap="round"/>
<path d="M23 99.1329L24.973 91.6379" stroke="white" stroke-width="1.5" stroke-linecap="round"/>
<path d="M23 99.1329H33.656" stroke="white" stroke-width="1.5" stroke-linecap="round"/>
<path d="M36.4183 87.6929L41.9433 91.6379" stroke="white" stroke-width="1.5" stroke-linecap="round"/>
<path d="M43.9169 99.1329L41.9439 91.6379" stroke="white" stroke-width="1.5" stroke-linecap="round"/>
<path d="M43.9171 99.1329H33.261" stroke="white" stroke-width="1.5" stroke-linecap="round"/>
<path d="M65.2424 88.8553C63.9723 88.8553 62.8877 89.0833 62.1884 89.4975C61.5167 89.8952 61.2172 90.44 61.2172 91.2639V94.6868C61.2172 96.7956 63.0229 98.5113 65.2424 98.5113C67.4618 98.5113 69.2675 96.7956 69.2675 94.6868V91.2639C69.2675 90.44 68.968 89.8952 68.2963 89.4975C67.597 89.0833 66.5124 88.8553 65.2424 88.8553ZM65.2424 87.3553C68.0578 87.3553 70.7676 88.3233 70.7676 91.2639V94.6868C70.7676 97.6274 68.2939 100.011 65.2424 100.011C62.1908 100.011 59.7171 97.6274 59.7171 94.6868V91.2639C59.7171 88.3233 62.4269 87.3553 65.2424 87.3553Z" fill="white"/>
<path d="M62.2821 99.025L56.7571 102.97" stroke="white" stroke-width="1.5" stroke-linecap="round"/>
<path d="M54.7841 110.465L56.7571 102.97" stroke="white" stroke-width="1.5" stroke-linecap="round"/>
<path d="M54.7841 110.465H65.4402" stroke="white" stroke-width="1.5" stroke-linecap="round"/>
<path d="M68.2025 99.025L73.7275 102.97" stroke="white" stroke-width="1.5" stroke-linecap="round"/>
<path d="M75.701 110.465L73.728 102.97" stroke="white" stroke-width="1.5" stroke-linecap="round"/>
<path d="M75.7012 110.465H65.0452" stroke="white" stroke-width="1.5" stroke-linecap="round"/>
<path d="M97.0274 77.5232C95.7574 77.5232 94.6728 77.7513 93.9735 78.1654C93.3018 78.5632 93.0023 79.108 93.0023 79.9319V83.3548C93.0023 85.4636 94.808 87.1793 97.0274 87.1793C99.2469 87.1793 101.053 85.4636 101.053 83.3548V79.9319C101.053 79.108 100.753 78.5632 100.081 78.1654C99.3821 77.7513 98.2975 77.5232 97.0274 77.5232ZM97.0274 76.0232C99.8429 76.0232 102.553 76.9912 102.553 79.9319V83.3548C102.553 86.2954 100.079 88.6793 97.0274 88.6793C93.9759 88.6793 91.5022 86.2954 91.5022 83.3548V79.9319C91.5022 76.9912 94.212 76.0232 97.0274 76.0232Z" fill="white"/>
<path d="M94.0672 87.6929L88.5422 91.6379" stroke="white" stroke-width="1.5" stroke-linecap="round"/>
<path d="M86.5692 99.1329L88.5422 91.6379" stroke="white" stroke-width="1.5" stroke-linecap="round"/>
<path d="M86.5692 99.1329H97.2253" stroke="white" stroke-width="1.5" stroke-linecap="round"/>
<path d="M99.9875 87.6929L105.513 91.6379" stroke="white" stroke-width="1.5" stroke-linecap="round"/>
<path d="M107.486 99.1329L105.513 91.6379" stroke="white" stroke-width="1.5" stroke-linecap="round"/>
<path d="M107.486 99.1329H96.8303" stroke="white" stroke-width="1.5" stroke-linecap="round"/>
<path d="M65.2499 72C79.6151 72 91.2605 60.3594 91.2605 46C91.2605 31.6406 79.6151 20 65.2499 20C50.8847 20 39.2394 31.6406 39.2394 46C39.2394 60.3594 50.8847 72 65.2499 72Z" stroke="white" stroke-width="2"/>
<path d="M66.3689 34.5235C65.8457 34.7255 65.4093 35.1036 65.1347 35.5927C64.8602 36.0818 64.7647 36.6512 64.8647 37.2031C61.4353 40.5221 55.0269 43.0118 54.9606 43.0373L52.1407 44.1215C51.3285 44.4349 50.6739 45.0575 50.3203 45.8529C49.9667 46.6483 49.943 47.5514 50.2544 48.3642L51.3858 51.3062C51.6992 52.1182 52.3219 52.7728 53.1174 53.1264C53.9128 53.48 54.816 53.5037 55.6289 53.1923L57.9529 52.2987L60.9886 56.9614C61.3998 57.593 62.0146 58.0649 62.731 58.2988C63.4474 58.5327 64.2223 58.5146 64.927 58.2474C65.1723 58.1532 65.3934 58.0054 65.5744 57.8149C65.7554 57.6244 65.8915 57.396 65.9731 57.1462C66.0546 56.8964 66.0794 56.6316 66.0456 56.371C66.0119 56.1105 65.9205 55.8607 65.778 55.6399L64.5221 53.6817C65.0422 53.2571 65.4522 52.7135 65.7175 52.0968C65.9828 51.4801 66.0955 50.8085 66.046 50.139C67.2526 49.8929 68.4825 49.7795 69.7137 49.8009C70.0292 50.3107 70.5236 50.6845 71.1002 50.849C71.6768 51.0135 72.294 50.9571 72.8311 50.6906C73.3682 50.4242 73.7866 49.9669 74.0044 49.4083C74.2222 48.8498 74.2237 48.23 74.0086 47.6704L69.4842 35.9051C69.2541 35.309 68.7967 34.8286 68.2125 34.5695C67.6284 34.3105 66.9653 34.2939 66.3689 34.5235V34.5235ZM65.1781 48.975C64.4521 49.1084 60.8103 50.0015 58.605 50.6822L56.0419 44.0173C59.3962 42.6704 62.5302 40.8294 65.3398 38.5556L69.1585 48.4856C67.8191 48.5205 66.4861 48.6844 65.1781 48.975V48.975ZM52.6113 50.835L51.4799 47.893C51.2929 47.4052 51.3071 46.8632 51.5193 46.3859C51.7315 45.9085 52.1244 45.5348 52.6119 45.3469L54.8191 44.4982L57.3649 51.1182L55.1577 51.9669C54.6699 52.1539 54.1278 52.1397 53.6504 51.9275C53.173 51.7153 52.7993 51.3224 52.6113 50.835V50.835ZM64.4567 57.0217C64.0334 57.1826 63.5678 57.1936 63.1375 57.0527C62.7071 56.9119 62.3381 56.6278 62.0919 56.2478L59.237 51.8629C59.9323 51.6524 60.6651 51.4446 61.389 51.2499L64.6745 56.3473C64.7119 56.4041 64.7361 56.4686 64.7452 56.536C64.7544 56.6034 64.7483 56.672 64.7274 56.7367C64.7065 56.8015 64.6713 56.8607 64.6245 56.91C64.5776 56.9593 64.5203 56.9975 64.4567 57.0217V57.0217ZM63.8004 52.5688L62.7332 50.9089C63.3986 50.7378 64.0697 50.5676 64.7425 50.4129C64.7474 50.8187 64.6659 51.2208 64.5032 51.5926C64.3406 51.9644 64.1007 52.2973 63.7994 52.5691L63.8004 52.5688ZM72.7805 48.1458C72.8745 48.4144 72.8603 48.7091 72.7408 48.9674C72.6212 49.2257 72.4058 49.4272 72.1401 49.5294C71.8745 49.6315 71.5794 49.6262 71.3176 49.5146C71.0558 49.4029 70.8478 49.1937 70.7377 48.9312L66.2121 37.1631C66.1554 37.028 66.1264 36.8829 66.1268 36.7363C66.1273 36.5898 66.1571 36.4448 66.2146 36.31C66.2721 36.1752 66.3561 36.0534 66.4616 35.9516C66.5671 35.8499 66.6919 35.7704 66.8287 35.7178C66.9655 35.6652 67.1115 35.6406 67.258 35.6454C67.4044 35.6503 67.5484 35.6845 67.6814 35.7461C67.8145 35.8076 67.9337 35.8952 68.0323 36.0037C68.1308 36.1122 68.2065 36.2394 68.2549 36.3777L72.7805 48.1458Z" fill="white" stroke="white" stroke-width="0.200129"/>
<path d="M52.2399 69L37.2334 78" stroke="white" stroke-width="2"/>
<path d="M78.2604 69L93.2669 78" stroke="white" stroke-width="2"/>
<path d="M65.2501 72V88" stroke="white" stroke-width="2"/>
<path d="M74.423 40.732L82.325 38.098" stroke="white" stroke-linecap="round"/>
<path d="M73.106 36.78L78.374 31.512" stroke="white" stroke-linecap="round"/>
<path d="M75.7402 44.683L82.3252 46" stroke="white" stroke-linecap="round"/>
</svg>
